Patient4_TMGait_0pt6_01_left_42_GRF.mot
version=1
nRows=78
nColumns=19
inDegrees=no
endheader
time	F1x	F1y	F1z	M1x	M1y	M1z	F2x	F2y	F2z	M2x	M2y	M2z	EC1x	EC1y	EC1z	EC2x	EC2y	EC2z
51.09	-12.321	-2.7208	-3.2492	0.45517	-2.4466	6.3095	-10.2584	755.9944	-62.9138	322.8315	68.9405	755.0387	-0.0592	0.0182	-0.0073	-0.0462	0.0165	0.9585
51.1019	-8.2646	-0.89173	-2.0321	-0.074799	-1.8168	5.2192	-9.5218	743.4979	-60.1682	318.1801	64.8462	739.8788	-0.0592	0.0182	-0.0073	-0.0462	0.0165	0.9585
51.1139	-4.8688	0.70304	-1.0446	-0.51915	-1.2541	4.3774	-8.1187	732.864	-57.8102	314.2378	60.9651	725.7453	-0.0592	0.0182	-0.0073	-0.0462	0.0165	0.9585
51.1258	-2.2998	1.9663	-0.31876	-0.86391	-0.80897	3.7945	-6.1449	725.5463	-56.0014	311.6106	57.5389	714.1472	-0.0592	0.0182	-0.0073	-0.0462	0.0165	0.9585
51.1377	-0.55901	2.8887	0.16053	-1.1117	-0.49159	3.4389	-3.8112	722.3219	-54.7687	310.642	54.6763	705.9975	-0.0592	0.0182	-0.0073	-0.0462	0.0165	0.9585
51.1496	0.47309	3.508	0.43431	-1.274	-0.28927	3.2554	-1.2991	723.2634	-54.0322	311.3841	52.3585	701.5174	-0.0592	0.0182	-0.0073	-0.0462	0.0165	0.9585
51.1616	0.9565	3.8889	0.55728	-1.3676	-0.18128	3.2029	1.1906	727.807	-53.6889	313.6162	50.5349	700.3327	-0.0592	0.0182	-0.0073	-0.0462	0.0165	0.9585
51.1735	1.0463	4.0687	0.57365	-1.4017	-0.14246	3.2034	3.5292	734.898	-53.6004	316.9052	49.0956	701.5709	-0.0592	0.0182	-0.0073	-0.0462	0.0165	0.9585
51.1854	0.87665	4.0604	0.53334	-1.3757	-0.16064	3.1573	5.6193	743.2247	-53.6901	320.6919	47.9738	704.1206	-0.0592	0.0182	-0.0073	-0.0462	0.0165	0.9585
51.1974	0.55522	3.8446	0.45665	-1.2786	-0.20864	2.9668	7.4421	751.3925	-53.8449	324.3855	47.0455	706.7414	-0.0592	0.0182	-0.0073	-0.0462	0.0165	0.9585
51.2093	0.15699	3.3499	0.36887	-1.0838	-0.27433	2.4932	8.9994	758.2407	-53.9864	327.481	46.2144	708.4223	-0.0592	0.0182	-0.0073	-0.0462	0.0165	0.9585
51.2212	-0.26214	2.5016	0.2708	-0.76318	-0.33327	1.6266	10.3469	762.8851	-54.0118	329.5939	45.3502	708.3705	-0.0592	0.0182	-0.0073	-0.0462	0.0165	0.9585
51.2331	-0.63157	1.1933	0.16864	-0.28038	-0.36258	0.24148	11.4925	764.7703	-53.8682	330.475	44.3905	706.1224	-0.0592	0.0182	-0.0073	-0.0462	0.0165	0.9585
51.2451	-0.88811	-0.63547	0.053138	0.38399	-0.33003	-1.727	12.4939	763.5906	-53.5404	329.9821	43.3081	701.4189	-0.0592	0.0182	-0.0073	-0.0462	0.0165	0.9585
51.257	-0.9225	-2.971	-0.07814	1.2181	-0.19357	-4.2661	13.3452	759.2787	-53.071	328.0714	42.1474	694.2316	-0.0592	0.0182	-0.0073	-0.0462	0.0165	0.9585
51.2689	-0.59924	-5.6219	-0.23164	2.1501	0.10149	-7.1597	14.1027	752.0223	-52.525	324.8132	40.9564	684.7262	-0.0592	0.0182	-0.0073	-0.0462	0.0165	0.9585
51.2809	0.26248	-8.1584	-0.40026	3.0246	0.61171	-9.9503	14.8238	742.378	-51.9744	320.4333	39.7858	673.3936	-0.0592	0.0182	-0.0073	-0.0462	0.0165	0.9585
51.2928	1.8596	-9.8034	-0.57155	3.5652	1.3879	-11.7719	15.6184	731.1549	-51.5037	315.2761	38.6752	660.9026	-0.0592	0.0182	-0.0073	-0.0462	0.0165	0.9585
51.3047	4.3865	-9.37	-0.71269	3.3472	2.4557	-11.3167	16.613	719.2854	-51.1998	309.7411	37.649	648.0152	-0.0592	0.0182	-0.0073	-0.0462	0.0165	0.9585
51.3166	7.952	-5.1948	-0.76528	1.7808	3.785	-6.7323	17.9615	707.5819	-51.1442	304.1878	36.7174	635.3776	-0.0592	0.0182	-0.0073	-0.0462	0.0165	0.9585
51.3286	12.5218	4.8209	-0.64137	-1.8769	5.2614	4.3231	19.7673	696.5592	-51.3731	298.8587	35.8697	623.3916	-0.0592	0.0182	-0.0073	-0.0462	0.0165	0.9585
51.3405	17.7646	23.0736	-0.22342	-8.467	6.6279	24.5396	22.0752	686.3012	-51.8714	293.8204	35.0756	612.0888	-0.0592	0.0182	-0.0073	-0.0462	0.0165	0.9585
51.3524	22.8878	51.8457	0.63094	-18.7823	7.4309	56.501	24.8391	676.3583	-52.5277	288.9224	34.2618	601.0681	-0.0592	0.0182	-0.0073	-0.0462	0.0165	0.9585
51.3644	26.4593	92.6394	2.0807	-33.3267	6.9705	101.9497	27.9302	665.7173	-53.1547	283.783	33.3287	589.4639	-0.0592	0.0182	-0.0073	-0.0462	0.0165	0.9585
51.3763	26.3407	145.234	4.3194	-51.9844	4.276	160.7323	31.1661	652.9042	-53.4854	277.8248	32.129	576.0241	-0.0592	0.0182	-0.0073	-0.0462	0.0165	0.9585
51.3882	20.9054	207.7355	7.6312	-74.032	-1.5116	230.862	34.3111	636.1682	-53.2474	270.3447	30.5327	559.2725	-0.0592	0.0182	-0.0073	-0.0462	0.0165	0.9585
51.4001	10.929	277.5383	12.2372	-98.4649	-10.3462	309.4486	37.1251	613.8054	-52.233	260.6367	28.4687	537.7866	-0.0592	0.0182	-0.0073	-0.0462	0.0165	0.9585
51.4121	-1.5386	350.0578	18.3391	-123.5793	-21.6865	391.1631	39.3408	584.316	-50.3677	248.0534	25.9821	510.3385	-0.0592	0.0182	-0.0073	-0.0462	0.0165	0.9585
51.424	-14.5992	419.0296	26.1354	-147.1656	-34.9603	468.6186	40.6952	546.4905	-47.7183	232.0608	23.2419	475.9273	-0.0592	0.0182	-0.0073	-0.0462	0.0165	0.9585
51.4359	-26.6385	480.9518	34.7096	-168.0445	-48.5876	537.5813	40.9159	499.9164	-44.3966	212.4334	20.4522	434.2666	-0.0592	0.0182	-0.0073	-0.0462	0.0165	0.9585
51.4479	-36.7084	534.8547	43.2336	-185.968	-61.2773	596.8136	39.7892	445.1551	-40.5988	189.3561	17.8575	385.8711	-0.0592	0.0182	-0.0073	-0.0462	0.0165	0.9585
51.4598	-44.3292	581.0602	50.7082	-201.1614	-71.7875	646.6002	37.172	383.8558	-36.5233	163.474	15.6633	332.1889	-0.0592	0.0182	-0.0073	-0.0462	0.0165	0.9585
51.4717	-49.3604	620.2623	56.6132	-213.9594	-79.5115	687.7166	33.0758	318.5973	-32.2793	135.8517	13.9318	275.4173	-0.0592	0.0182	-0.0073	-0.0462	0.0165	0.9585
51.4836	-51.8159	653.2654	60.5409	-224.7198	-84.064	721.0735	27.6913	252.7688	-27.9416	107.912	12.6217	218.4474	-0.0592	0.0182	-0.0073	-0.0462	0.0165	0.9585
51.4956	-51.8577	680.8466	62.5273	-233.7452	-85.5939	747.6377	21.5333	190.1284	-23.5542	81.2605	11.5438	164.4199	-0.0592	0.0182	-0.0073	-0.0462	0.0165	0.9585
51.5075	-49.8188	703.4387	62.965	-241.1857	-84.6918	768.0384	15.2989	134.206	-19.1997	57.4141	10.469	116.301	-0.0592	0.0182	-0.0073	-0.0462	0.0165	0.9585
51.5194	-46.2347	721.1678	62.3982	-247.0558	-82.1746	782.6012	9.7514	87.5336	-14.926	37.48	9.1287	76.1756	-0.0592	0.0182	-0.0073	-0.0462	0.0165	0.9585
51.5314	-41.6921	734.0851	61.4638	-251.3424	-78.9558	791.6034	5.3327	51.2617	-10.8664	21.9694	7.464	45.001	-0.0592	0.0182	-0.0073	-0.0462	0.0165	0.9585
51.5433	-36.7385	742.662	60.4003	-254.1958	-75.5197	795.7278	2.194	25.2306	-7.1872	10.8288	5.5745	22.6058	-0.0592	0.0182	-0.0073	-0.0462	0.0165	0.9585
51.5552	-31.7965	747.7975	59.313	-255.9303	-72.1434	796.1027	0.1788	8.2858	-4.1436	3.5667	3.755	8.0162	-0.0592	0.0182	-0.0073	-0.0462	0.0165	0.9585
51.5671	-27.1584	750.4821	57.9791	-256.9123	-68.7166	793.9074	-0.9313	-1.4013	-1.9167	-0.59246	2.2662	-0.34633	-0.0592	0.0182	-0.0073	-0.0462	0.0165	0.9585
51.5791	-23.0045	751.5379	56.4096	-257.4382	-65.3035	790.0952	-1.4148	-5.8154	-0.43411	-2.4947	1.1556	-4.1728	-0.0592	0.0182	-0.0073	-0.0462	0.0165	0.9585
51.591	-19.4309	751.5941	54.6233	-257.7326	-61.9435	785.3685	-1.4765	-6.8022	0.42367	-2.9238	0.41035	-5.0728	-0.0592	0.0182	-0.0073	-0.0462	0.0165	0.9585
51.6029	-16.4265	751.2053	52.8503	-257.9743	-58.8476	780.3274	-1.3206	-5.8077	0.824	-2.5014	-0.03313	-4.2726	-0.0592	0.0182	-0.0073	-0.0462	0.0165	0.9585
51.6149	-13.9766	750.8708	51.2155	-258.3173	-56.1138	775.4877	-1.0564	-3.916	0.92094	-1.6882	-0.25619	-2.717	-0.0592	0.0182	-0.0073	-0.0462	0.0165	0.9585
51.6268	-12.0238	750.9929	49.8018	-258.8772	-53.7805	771.2467	-0.78991	-1.8114	0.83373	-0.78194	-0.31758	-0.96942	-0.0592	0.0182	-0.0073	-0.0462	0.0165	0.9585
51.6387	-10.5124	751.7956	48.5966	-259.7081	-51.7888	767.8099	-0.54478	0.10085	0.66818	0.043199	-0.29367	0.61813	-0.0592	0.0182	-0.0073	-0.0462	0.0165	0.9585
51.6506	-9.3558	753.2603	47.5722	-260.7825	-50.0618	765.1101	-0.35944	1.6478	0.46995	0.70901	-0.20742	1.9197	-0.0592	0.0182	-0.0073	-0.0462	0.0165	0.9585
51.6626	-8.4533	755.2365	46.7477	-262.0262	-48.574	762.949	-0.2165	2.7772	0.29334	1.1949	-0.10994	2.879	-0.0592	0.0182	-0.0073	-0.0462	0.0165	0.9585
51.6745	-7.6589	757.5621	46.1279	-263.3626	-47.282	761.1091	-0.12312	3.5302	0.13769	1.5173	-0.0027325	3.5368	-0.0592	0.0182	-0.0073	-0.0462	0.0165	0.9585
51.6864	-6.8184	760.1104	45.762	-264.7296	-46.1853	759.4167	-0.059649	3.9758	0.030462	1.708	0.07844	3.9444	-0.0592	0.0182	-0.0073	-0.0462	0.0165	0.9585
51.6984	-5.7504	762.7614	45.6068	-266.0737	-45.1948	757.7175	-0.030722	4.2101	-0.050237	1.8062	0.14926	4.1934	-0.0592	0.0182	-0.0073	-0.0462	0.0165	0.9585
51.7103	-4.2799	765.3235	45.6773	-267.3168	-44.2786	755.816	-0.020784	4.3091	-0.096218	1.8462	0.19345	4.3396	-0.0592	0.0182	-0.0073	-0.0462	0.0165	0.9585
51.7222	-2.2786	767.494	45.9142	-268.3447	-43.3476	753.4203	-0.033149	4.3384	-0.1257	1.8553	0.22373	4.4326	-0.0592	0.0182	-0.0073	-0.0462	0.0165	0.9585
51.7341	0.31728	768.8362	46.3548	-268.9903	-42.4274	750.1416	-0.056794	4.3473	-0.13364	1.8542	0.23039	4.5103	-0.0592	0.0182	-0.0073	-0.0462	0.0165	0.9585
51.7461	3.4603	768.8925	46.9683	-269.0837	-41.5091	745.5914	-0.088234	4.3661	-0.12668	1.8562	0.222	4.599	-0.0592	0.0182	-0.0073	-0.0462	0.0165	0.9585
51.758	6.9995	767.291	47.7592	-268.4886	-40.6468	739.4922	-0.13067	4.4185	-0.10821	1.8714	0.20515	4.7256	-0.0592	0.0182	-0.0073	-0.0462	0.0165	0.9585
51.7699	10.7285	763.8549	48.6471	-267.1467	-39.8326	731.7673	-0.16947	4.503	-0.089081	1.9006	0.18926	4.8809	-0.0592	0.0182	-0.0073	-0.0462	0.0165	0.9585
51.7819	14.449	758.6958	49.5493	-265.1028	-39.0578	722.6063	-0.21911	4.6007	-0.077992	1.9367	0.18727	5.0363	-0.0592	0.0182	-0.0073	-0.0462	0.0165	0.9585
51.7938	17.9777	752.2108	50.369	-262.5043	-38.2848	712.4455	-0.26531	4.6721	-0.076048	1.9634	0.1989	5.1356	-0.0592	0.0182	-0.0073	-0.0462	0.0165	0.9585
51.8057	21.2192	744.987	51.0602	-259.5632	-37.4947	701.8734	-0.32358	4.6523	-0.088363	1.9516	0.23295	5.1145	-0.0592	0.0182	-0.0073	-0.0462	0.0165	0.9585
51.8176	24.1023	737.6728	51.6216	-256.5078	-36.7018	691.5374	-0.38075	4.4431	-0.11171	1.8601	0.28239	4.8563	-0.0592	0.0182	-0.0073	-0.0462	0.0165	0.9585
51.8296	26.635	730.8827	52.0714	-253.5477	-35.9198	682.0069	-0.44779	3.9443	-0.14864	1.643	0.34766	4.2583	-0.0592	0.0182	-0.0073	-0.0462	0.0165	0.9585
51.8415	28.8411	725.1299	52.46	-250.848	-35.1842	673.7612	-0.50077	3.011	-0.1956	1.2425	0.41589	3.1403	-0.0592	0.0182	-0.0073	-0.0462	0.0165	0.9585
51.8534	30.7976	720.7679	52.8291	-248.5193	-34.5115	667.0926	-0.53263	1.5299	-0.24636	0.6075	0.47324	1.3822	-0.0592	0.0182	-0.0073	-0.0462	0.0165	0.9585
51.8654	32.574	717.9916	53.2445	-246.6204	-33.9429	662.1322	-0.50217	-0.59651	-0.2907	-0.30156	0.49095	-1.1206	-0.0592	0.0182	-0.0073	-0.0462	0.0165	0.9585
51.8773	34.3074	716.8672	53.7414	-245.1687	-33.4756	658.8742	-0.38346	-3.3514	-0.3024	-1.4797	0.4266	-4.3321	-0.0592	0.0182	-0.0073	-0.0462	0.0165	0.9585
51.8892	36.1186	717.3619	54.38	-244.1476	-33.1255	657.238	-0.10738	-6.5714	-0.24947	-2.8527	0.21876	-8.0714	-0.0592	0.0182	-0.0073	-0.0462	0.0165	0.9585
51.9011	38.1324	719.3531	55.1832	-243.5107	-32.8745	657.0549	0.37326	-9.7982	-0.092142	-4.2218	-0.19729	-11.8027	-0.0592	0.0182	-0.0073	-0.0462	0.0165	0.9585
51.9131	40.4182	722.5798	56.1889	-243.1687	-32.7338	658.0617	1.1303	-12.2118	0.2121	-5.226	-0.89521	-14.5885	-0.0592	0.0182	-0.0073	-0.0462	0.0165	0.9585
51.925	42.9925	726.6121	57.3861	-242.9861	-32.6911	659.8425	2.1881	-12.4782	0.69148	-5.2848	-1.915	-14.8879	-0.0592	0.0182	-0.0073	-0.0462	0.0165	0.9585
51.9369	45.7966	730.8106	58.7326	-242.7738	-32.7325	661.809	3.5428	-8.703	1.3701	-3.5724	-3.2658	-10.5275	-0.0592	0.0182	-0.0073	-0.0462	0.0165	0.9585
51.9489	48.7556	734.3113	60.1228	-242.2894	-32.7955	663.18	5.0727	1.6008	2.228	0.98748	-4.8595	1.3627	-0.0592	0.0182	-0.0073	-0.0462	0.0165	0.9585
51.9608	51.7884	736.0002	61.3888	-241.2318	-32.7637	662.9492	6.5423	21.3335	3.1975	9.6471	-6.4954	24.1081	-0.0592	0.0182	-0.0073	-0.0462	0.0165	0.9585
51.9727	54.827	734.4811	62.3057	-239.2227	-32.4718	659.8669	7.496	53.4276	4.1139	23.6594	-7.7734	61.0799	-0.0592	0.0182	-0.0073	-0.0462	0.0165	0.9585
51.9846	57.7556	727.9892	62.6002	-235.7667	-31.7248	652.3756	7.2563	100.0776	4.7048	43.9474	-8.0677	114.7925	-0.0592	0.0182	-0.0073	-0.0462	0.0165	0.9585
51.9966	60.3502	714.409	61.9914	-230.2432	-30.3595	638.6355	4.8517	161.5683	4.5266	70.5888	-6.4416	185.5726	-0.0592	0.0182	-0.0073	-0.0462	0.0165	0.9585
52.0085	62.2583	691.4419	60.2232	-221.9549	-28.274	616.6626	-0.85292	234.7018	3.0346	102.1344	-1.7956	269.7337	-0.0592	0.0182	-0.0073	-0.0462	0.0165	0.9585
